<svg width="200" height="177" viewBox="0 0 200 177" fill="none" xmlns="http://www.w3.org/2000/svg">
<path d="M193.164 50.3419H161.868L180.556 29.5381C181.593 28.3815 182.12 26.8922 182.037 25.3419C181.953 23.7901 181.271 22.3649 180.116 21.3273L172.079 14.1099C169.695 11.9676 166.011 12.1644 163.87 14.5494L131.718 50.3419H75.7614C74.144 50.3419 72.8317 51.6526 72.8317 53.2716C72.8317 54.8906 74.144 56.2013 75.7614 56.2013H126.456L113.385 70.7521C112.347 71.9072 111.823 73.3979 111.905 74.9482C111.916 75.1313 111.934 75.3114 111.96 75.4914L107.468 87.639C106.801 89.4426 107.294 91.4384 108.725 92.7232C109.602 93.5121 110.71 93.921 111.832 93.921C112.537 93.921 113.248 93.7593 113.913 93.4297L125.52 87.6588C125.594 87.6618 125.665 87.6695 125.74 87.6695C125.845 87.6695 125.951 87.6664 126.057 87.6603C127.608 87.5764 129.033 86.8959 130.072 85.7392L156.606 56.2013H193.164C193.703 56.2013 194.141 56.6392 194.141 57.1778V170.053C194.141 170.592 193.703 171.03 193.164 171.03H171.851C170.233 171.03 168.921 172.34 168.921 173.959C168.921 175.577 170.233 176.889 171.851 176.889H193.164C196.933 176.889 200 173.822 200 170.053V57.1778C200 53.4074 196.933 50.3419 193.164 50.3419ZM176.167 25.6562L172.687 29.5289L164.719 22.3726L168.199 18.4983L176.167 25.6562ZM160.803 26.732L162.608 28.3525L119.58 76.2544L117.775 74.6324L160.803 26.732ZM116.151 81.0502L119.536 84.0913L114.012 86.8363L116.151 81.0502ZM125.743 81.7903L123.938 80.1698L166.968 32.2679L168.771 33.8884L125.743 81.7903Z" fill="#ED1C24"/>
<path d="M159.093 171.03H27.3224C15.4877 171.03 5.85938 161.401 5.85938 149.567V148.018C5.85938 136.183 15.4861 126.556 27.3209 126.556H33.342C37.1124 126.556 40.1779 123.489 40.1779 119.72V56.2012H63.0035C64.6225 56.2012 65.9332 54.8889 65.9332 53.2715C65.9332 51.6525 64.6225 50.3418 63.0035 50.3418H40.1779V40.1688C40.1779 38.5513 38.8672 37.2391 37.2482 37.2391C35.6308 37.2391 34.3185 38.5513 34.3185 40.1688V119.72C34.3185 120.259 33.8806 120.697 33.342 120.697H27.3209C18.6264 120.697 10.8658 124.78 5.85938 131.129V27.3224C5.85938 15.4877 15.4877 5.85938 27.3224 5.85938H33.342C33.8806 5.85938 34.3185 6.2973 34.3185 6.83594V27.4109C34.3185 29.0298 35.6308 30.3406 37.2482 30.3406C38.8672 30.3406 40.1779 29.0298 40.1779 27.4109V6.83594C40.1779 3.06702 37.1124 0 33.342 0H27.3224C12.2574 0 0 12.2559 0 27.3224V149.567C0 164.632 12.2574 176.889 27.3224 176.889H159.093C160.712 176.889 162.022 175.577 162.022 173.959C162.022 172.34 160.712 171.03 159.093 171.03Z" fill="#ED1C24"/>
<path d="M156.326 81.2712C144.359 81.2712 134.546 90.6523 133.844 102.446H120.357C118.739 102.446 117.427 103.758 117.427 105.376V138.841C117.427 140.46 118.739 141.771 120.357 141.771H153.822C155.441 141.771 156.752 140.46 156.752 138.841V126.317C168.979 126.088 178.854 116.078 178.854 103.799C178.854 91.3771 168.749 81.2712 156.326 81.2712ZM150.894 119.554C145.763 117.779 141.762 113.566 140.283 108.305H150.894V119.554ZM123.286 135.911V108.305H134.253C135.986 116.807 142.523 123.579 150.894 125.661V135.911H123.286ZM156.754 120.457V105.376C156.754 103.758 155.441 102.446 153.824 102.446H139.719C140.41 93.8857 147.592 87.1306 156.328 87.1306C165.518 87.1306 172.997 94.6074 172.997 103.799C172.995 112.848 165.747 120.23 156.754 120.457Z" fill="#ED1C24"/>
<path d="M167.21 128.351C165.591 128.351 164.281 129.662 164.281 131.281C164.281 132.898 165.591 134.21 167.21 134.21H173.727C175.346 134.21 176.657 132.898 176.657 131.281C176.657 129.662 175.346 128.351 173.727 128.351H167.21Z" fill="#ED1C24"/>
<path d="M176.657 138.841C176.657 137.224 175.346 135.911 173.727 135.911H167.21C165.591 135.911 164.281 137.224 164.281 138.841C164.281 140.46 165.591 141.771 167.21 141.771H173.727C175.346 141.771 176.657 140.46 176.657 138.841Z" fill="#ED1C24"/>
<path d="M53.5156 80.104H58.2031C59.8206 80.104 61.1328 78.7933 61.1328 77.1743C61.1328 75.5569 59.8206 74.2446 58.2031 74.2446H53.5156C51.8982 74.2446 50.5859 75.5569 50.5859 77.1743C50.5859 78.7933 51.8982 80.104 53.5156 80.104Z" fill="#ED1C24"/>
<path d="M53.5156 88.6399H76.1307C77.7496 88.6399 79.0604 87.3276 79.0604 85.7102C79.0604 84.0912 77.7496 82.7805 76.1307 82.7805H53.5156C51.8982 82.7805 50.5859 84.0912 50.5859 85.7102C50.5859 87.3276 51.8982 88.6399 53.5156 88.6399Z" fill="#ED1C24"/>
<path d="M71.4432 80.104H76.1307C77.7496 80.104 79.0604 78.7933 79.0604 77.1743C79.0604 75.5569 77.7496 74.2446 76.1307 74.2446H71.4432C69.8257 74.2446 68.5135 75.5569 68.5135 77.1743C68.5135 78.7933 69.8257 80.104 71.4432 80.104Z" fill="#ED1C24"/>
<path d="M94.0582 74.2446H89.3707C87.7533 74.2446 86.441 75.5569 86.441 77.1743C86.441 78.7933 87.7533 80.104 89.3707 80.104H94.0582C95.6772 80.104 96.9879 78.7933 96.9879 77.1743C96.9879 75.5569 95.6772 74.2446 94.0582 74.2446Z" fill="#ED1C24"/>
<path d="M53.5156 97.1113H76.1307C77.7496 97.1113 79.0604 95.7991 79.0604 94.1816C79.0604 92.5627 77.7496 91.252 76.1307 91.252H53.5156C51.8982 91.252 50.5859 92.5627 50.5859 94.1816C50.5859 95.7991 51.8982 97.1113 53.5156 97.1113Z" fill="#ED1C24"/>
<path d="M50.5859 102.652C50.5859 104.271 51.8982 105.582 53.5156 105.582H89.3707C90.9897 105.582 92.3004 104.271 92.3004 102.652C92.3004 101.035 90.9897 99.7224 89.3707 99.7224H53.5156C51.8982 99.7224 50.5859 101.035 50.5859 102.652Z" fill="#ED1C24"/>
<path d="M96.9879 111.124C96.9879 109.506 95.6772 108.194 94.0582 108.194H53.5156C51.8982 108.194 50.5859 109.506 50.5859 111.124C50.5859 112.742 51.8982 114.053 53.5156 114.053H94.0582C95.6772 114.053 96.9879 112.742 96.9879 111.124Z" fill="#ED1C24"/>
<path d="M64.5187 124.772C64.5187 123.154 63.2065 121.843 61.589 121.843H53.5156C51.8982 121.843 50.5859 123.154 50.5859 124.772V132.844C50.5859 134.463 51.8982 135.774 53.5156 135.774H61.589C63.2065 135.774 64.5187 134.463 64.5187 132.844V124.772ZM58.6594 129.916H56.4453V127.702H58.6594V129.916Z" fill="#ED1C24"/>
<path d="M83.8882 124.772C83.8882 123.154 82.576 121.843 80.9586 121.843H72.8851C71.2677 121.843 69.9554 123.154 69.9554 124.772V132.844C69.9554 134.463 71.2677 135.774 72.8851 135.774H80.9586C82.576 135.774 83.8882 134.463 83.8882 132.844V124.772ZM78.0289 129.916H75.8148V127.702H78.0289V129.916Z" fill="#ED1C24"/>
<path d="M103.259 124.772C103.259 123.154 101.947 121.843 100.33 121.843H92.2562C90.6372 121.843 89.3265 123.154 89.3265 124.772V132.844C89.3265 134.463 90.6372 135.774 92.2562 135.774H100.33C101.947 135.774 103.259 134.463 103.259 132.844V124.772ZM97.3999 129.916H95.1859V127.702H97.3999V129.916Z" fill="#ED1C24"/>
<path d="M61.589 142.416H53.5156C51.8982 142.416 50.5859 143.727 50.5859 145.346V153.418C50.5859 155.037 51.8982 156.348 53.5156 156.348H61.589C63.2065 156.348 64.5187 155.037 64.5187 153.418V145.346C64.5187 143.727 63.2065 142.416 61.589 142.416ZM58.6594 150.488H56.4453V148.274H58.6594V150.488Z" fill="#ED1C24"/>
<path d="M80.9586 142.416H72.8851C71.2677 142.416 69.9554 143.727 69.9554 145.346V153.418C69.9554 155.037 71.2677 156.348 72.8851 156.348H80.9586C82.576 156.348 83.8882 155.037 83.8882 153.418V145.346C83.8882 143.727 82.576 142.416 80.9586 142.416ZM78.0289 150.488H75.8148V148.274H78.0289V150.488Z" fill="#ED1C24"/>
<path d="M92.2562 156.348H100.33C101.947 156.348 103.259 155.037 103.259 153.418V145.345C103.259 143.727 101.947 142.415 100.33 142.415H92.2562C90.6372 142.415 89.3265 143.727 89.3265 145.345V153.418C89.3265 155.037 90.6372 156.348 92.2562 156.348ZM95.1859 148.276H97.3999V150.488H95.1859V148.276Z" fill="#ED1C24"/>
</svg>
