<svg width="200" height="200" viewBox="0 0 200 200" fill="none" xmlns="http://www.w3.org/2000/svg">
<path d="M146.511 55.4421C145.785 54.7156 144.777 54.2976 143.75 54.2976C142.723 54.2976 141.715 54.7156 140.988 55.4421C140.262 56.1687 139.844 57.1726 139.844 58.2039C139.844 59.2312 140.261 60.239 140.988 60.9656C141.715 61.6921 142.723 62.1101 143.75 62.1101C144.777 62.1101 145.785 61.6921 146.511 60.9656C147.238 60.239 147.656 59.2312 147.656 58.2039C147.656 57.1765 147.238 56.1687 146.511 55.4421Z" fill="#ED1C24"/>
<path d="M58.5938 110.157H27.3438C25.1867 110.157 23.4375 111.906 23.4375 114.063V145.313C23.4375 147.471 25.1867 149.22 27.3438 149.22H58.5938C60.7508 149.22 62.5 147.471 62.5 145.313V114.063C62.5 111.906 60.7512 110.157 58.5938 110.157ZM54.6875 141.407H31.25V117.969H54.6875V141.407Z" fill="#ED1C24"/>
<path d="M197.589 81.9386C196.129 81.3335 194.448 81.6686 193.332 82.785L153.528 122.589C153.527 122.59 153.527 122.59 153.526 122.591C153.525 122.592 153.525 122.592 153.524 122.593L107.124 168.993C107.123 168.994 107.123 168.994 107.122 168.995C107.122 168.996 107.121 168.996 107.12 168.997L82.7848 193.332C81.668 194.45 81.3336 196.13 81.9379 197.589C82.5426 199.049 83.9668 200.001 85.5469 200.001H196.094C198.251 200.001 200 198.252 200 196.094V85.5476C200 83.9679 199.049 82.5432 197.589 81.9386ZM192.188 192.188H94.9777L109.884 177.282L113.613 181.01C114.376 181.773 115.376 182.155 116.375 182.155C117.375 182.155 118.375 181.773 119.138 181.01C120.663 179.485 120.663 177.012 119.138 175.486L115.409 171.757L125.352 161.813L129.081 165.542C129.844 166.305 130.843 166.686 131.843 166.686C132.843 166.686 133.842 166.304 134.605 165.542C136.13 164.016 136.13 161.543 134.605 160.018L130.876 156.289L140.82 146.345L144.549 150.074C145.312 150.837 146.311 151.218 147.311 151.218C148.311 151.218 149.31 150.837 150.073 150.074C151.598 148.548 151.598 146.075 150.073 144.549L146.344 140.82L156.288 130.877L160.016 134.606C160.779 135.369 161.779 135.75 162.779 135.75C163.778 135.75 164.778 135.369 165.541 134.606C167.066 133.08 167.066 130.607 165.541 129.081L161.812 125.352L171.756 115.409L175.484 119.137C176.247 119.9 177.247 120.281 178.246 120.281C179.246 120.281 180.245 119.9 181.008 119.137C182.534 117.612 182.534 115.138 181.008 113.613L177.279 109.884L192.188 94.978V192.188Z" fill="#ED1C24"/>
<path d="M178.058 129.091C176.598 128.486 174.917 128.821 173.801 129.938L129.938 173.801C128.821 174.918 128.486 176.598 129.091 178.058C129.695 179.518 131.12 180.47 132.7 180.47H176.563C178.72 180.47 180.469 178.721 180.469 176.563V132.7C180.469 131.121 179.517 129.696 178.058 129.091ZM172.656 172.657H142.131L172.656 142.131V172.657Z" fill="#ED1C24"/>
<path d="M180.883 58.305C179.807 57.23 178.207 56.8761 176.777 57.3992L150.105 67.1667C149.572 67.362 149.088 67.671 148.686 68.0726L141.186 75.5722L92.2152 26.6007C91.4824 25.8683 90.489 25.4566 89.4531 25.4566C88.4172 25.4566 87.4234 25.8683 86.691 26.6007L27.7445 85.5472H13.3371L89.4531 9.43077L131.222 51.1999C132.748 52.7253 135.221 52.7253 136.747 51.1999C138.272 49.6745 138.272 47.2011 136.747 45.6753L92.2156 1.14404C90.6898 -0.381348 88.2172 -0.381348 86.691 1.14404L1.14408 86.691C0.0272858 87.8082 -0.307089 89.4882 0.297208 90.948C0.901896 92.4081 2.32611 93.3597 3.90619 93.3597H7.81245V196.094C7.81245 198.252 9.56167 200 11.7187 200H73.8226C75.9797 200 77.7289 198.252 77.7289 196.094C77.7289 193.937 75.9797 192.188 73.8226 192.188H15.6249V93.3597H29.3625C30.3984 93.3597 31.3918 92.948 32.1246 92.2156L89.4531 34.887L135.662 81.096L77.7344 139.024V103.907H105.078C107.235 103.907 108.984 102.158 108.984 100C108.984 97.8429 107.235 96.0941 105.078 96.0941H73.8281C71.6711 96.0941 69.9218 97.8429 69.9218 100V145.313C69.9218 145.769 70.0039 146.204 70.1472 146.611L66.6476 150.11C60.464 156.294 60.464 166.355 66.6476 172.539C69.7398 175.631 73.8004 177.177 77.8621 177.177C81.923 177.177 85.9851 175.631 89.0765 172.539L122.019 139.597C123.544 138.072 123.544 135.598 122.019 134.073C120.493 132.548 118.021 132.548 116.494 134.073L91.5363 159.031L80.1562 147.651L151.526 76.2808L162.906 87.6609L135.635 114.933C134.109 116.458 134.109 118.932 135.635 120.457C137.161 121.982 139.633 121.982 141.159 120.457L171.115 90.5015C171.516 90.0999 171.825 89.6156 172.02 89.0828L181.788 62.4105C182.311 60.9824 181.958 59.3804 180.883 58.305ZM86.0125 164.555L83.5523 167.015C82.0324 168.535 80.0121 169.372 77.8625 169.372C75.7129 169.372 73.6922 168.535 72.1726 167.015C70.6523 165.495 69.8156 163.474 69.8156 161.325C69.8156 159.176 70.6519 157.155 72.1722 155.635L74.6324 153.175L86.0125 164.555ZM166.83 80.5355L158.652 72.3566L171.557 67.6304L166.83 80.5355Z" fill="#ED1C24"/>
<path d="M131.519 124.571C130.793 123.844 129.785 123.427 128.758 123.427C127.731 123.427 126.723 123.844 125.996 124.571C125.27 125.302 124.852 126.305 124.852 127.333C124.852 128.364 125.269 129.368 125.996 130.098C126.723 130.825 127.727 131.239 128.758 131.239C129.785 131.239 130.793 130.825 131.519 130.098C132.246 129.368 132.664 128.36 132.664 127.333C132.664 126.305 132.246 125.302 131.519 124.571Z" fill="#ED1C24"/>
<path d="M89.4532 58.9851C81.2684 58.9851 74.6094 65.6441 74.6094 73.8289C74.6094 82.0136 81.2684 88.6726 89.4532 88.6726C97.638 88.6726 104.297 82.0136 104.297 73.8289C104.297 65.6441 97.638 58.9851 89.4532 58.9851ZM89.4532 80.8601C85.5762 80.8601 82.4219 77.7062 82.4219 73.8289C82.4219 69.9519 85.5762 66.7976 89.4532 66.7976C93.3301 66.7976 96.4844 69.9519 96.4844 73.8289C96.4844 77.7058 93.3301 80.8601 89.4532 80.8601Z" fill="#ED1C24"/>
</svg>
