<svg width="196" height="196" viewBox="0 0 196 196" fill="none" xmlns="http://www.w3.org/2000/svg">
<path d="M173.133 19.6C167.639 19.6064 162.331 21.5907 158.18 25.1899C154.029 28.789 151.313 33.7623 150.528 39.2H111.067V45.7333H150.267V173.133C150.267 174 150.611 174.831 151.223 175.443C151.836 176.056 152.667 176.4 153.533 176.4C154.4 176.4 155.231 176.056 155.843 175.443C156.456 174.831 156.8 174 156.8 173.133C156.8 168.801 158.521 164.647 161.584 161.584C164.647 158.521 168.801 156.8 173.133 156.8C177.465 156.8 181.62 158.521 184.683 161.584C187.746 164.647 189.467 168.801 189.467 173.133V173.819C189.458 177.967 187.807 181.942 184.874 184.874C181.942 187.807 177.967 189.458 173.819 189.467H6.53333V121.902C13.959 136.308 25.1966 148.398 39.0212 156.856C52.8457 165.314 68.7268 169.814 84.9333 169.867C85.7997 169.867 86.6306 169.523 87.2432 168.91C87.8558 168.297 88.2 167.466 88.2 166.6C88.2 165.734 87.8558 164.903 87.2432 164.29C86.6306 163.677 85.7997 163.333 84.9333 163.333C72.6743 163.31 60.5799 160.509 49.5586 155.141L51.5872 147.575C53.6072 147.45 55.5352 146.686 57.0933 145.395C58.6514 144.103 59.7592 142.35 60.2569 140.388L71.0108 100.287C73.4526 100.738 75.9206 101.034 78.4 101.172V104.533C78.4 105.4 78.7442 106.231 79.3568 106.843C79.9694 107.456 80.8003 107.8 81.6667 107.8C82.533 107.8 83.3639 107.456 83.9765 106.843C84.5892 106.231 84.9333 105.4 84.9333 104.533V101.172C87.4126 101.036 89.8806 100.743 92.3225 100.293L103.073 140.378C103.569 142.342 104.677 144.096 106.236 145.388C107.795 146.68 109.725 147.442 111.746 147.565L114.444 157.64C114.629 158.335 115.039 158.95 115.61 159.389C116.18 159.828 116.88 160.066 117.6 160.067C117.886 160.066 118.17 160.029 118.446 159.956C118.86 159.845 119.249 159.653 119.589 159.392C119.93 159.13 120.215 158.805 120.43 158.433C120.644 158.062 120.783 157.651 120.839 157.226C120.895 156.801 120.867 156.368 120.756 155.954L118.061 145.902C119.718 144.756 120.983 143.128 121.684 141.239C122.385 139.35 122.489 137.291 121.981 135.341L100.545 55.3471C103.948 50.3777 105.247 44.2637 104.158 38.3399C103.069 32.4162 99.681 27.1637 94.7333 23.7291V13.0667C94.7333 9.60117 93.3567 6.27761 90.9062 3.82714C88.4557 1.37666 85.1322 0 81.6667 0C78.2012 0 74.8776 1.37666 72.4271 3.82714C69.9767 6.27761 68.6 9.60117 68.6 13.0667V23.7291C63.6523 27.1637 60.2642 32.4162 59.1755 38.3399C58.0867 44.2637 59.3856 50.3777 62.7886 55.3471L41.3331 135.354C40.8266 137.304 40.933 139.362 41.6379 141.249C42.3428 143.136 43.612 144.759 45.2727 145.899L43.6394 151.975C25.6533 141.452 12.3766 124.444 6.53333 104.442V45.7333H52.2667V39.2H0V196H173.819C179.702 195.991 185.34 193.65 189.498 189.489C193.657 185.329 195.995 179.689 196 173.806V42.4667C195.993 36.4042 193.582 30.592 189.295 26.3051C185.008 22.0183 179.196 19.6069 173.133 19.6ZM84.9333 94.5373V91.4667C84.9333 90.6003 84.5892 89.7694 83.9765 89.1568C83.3639 88.5442 82.533 88.2 81.6667 88.2C80.8003 88.2 79.9694 88.5442 79.3568 89.1568C78.7442 89.7694 78.4 90.6003 78.4 91.4667V94.5373C76.5002 94.4235 74.6082 94.2054 72.7323 93.884L80.4025 65.2745C80.8239 65.2974 81.2387 65.3399 81.6667 65.3399C82.0946 65.3399 82.5095 65.2974 82.9309 65.2745L90.601 93.884C88.7252 94.2054 86.8331 94.4235 84.9333 94.5373ZM115.682 137.02C115.9 137.854 115.782 138.739 115.355 139.487C114.927 140.235 114.224 140.786 113.396 141.022H113.376C112.543 141.243 111.657 141.125 110.91 140.695C110.54 140.481 110.217 140.194 109.96 139.853C109.702 139.512 109.516 139.123 109.41 138.709L89.3466 63.9777C91.4589 63.2209 93.448 62.1565 95.2495 60.8188L115.682 137.02ZM75.1333 13.0667C75.1333 11.3339 75.8217 9.67214 77.0469 8.4469C78.2721 7.22166 79.9339 6.53333 81.6667 6.53333C83.3994 6.53333 85.0612 7.22166 86.2864 8.4469C87.5117 9.67214 88.2 11.3339 88.2 13.0667V20.58C83.9392 19.2951 79.3941 19.2951 75.1333 20.58V13.0667ZM81.6667 26.1333C84.8971 26.1333 88.055 27.0913 90.741 28.886C93.427 30.6807 95.5205 33.2316 96.7567 36.2162C97.9929 39.2007 98.3164 42.4848 97.6862 45.6531C97.0559 48.8215 95.5003 51.7318 93.2161 54.0161C90.9318 56.3003 88.0215 57.8559 84.8531 58.4862C81.6848 59.1164 78.4007 58.7929 75.4162 57.5567C72.4316 56.3205 69.8807 54.227 68.086 51.541C66.2913 48.855 65.3333 45.6971 65.3333 42.4667C65.3385 38.1364 67.061 33.985 70.123 30.923C73.185 27.861 77.3364 26.1385 81.6667 26.1333ZM47.6476 137.033L68.0839 60.8188C69.8853 62.1565 71.8744 63.2209 73.9867 63.9777L53.9425 138.726C53.7184 139.552 53.1786 140.258 52.4393 140.691C51.7 141.123 50.8203 141.248 49.9898 141.038H49.9604C49.1264 140.808 48.4164 140.259 47.9837 139.51C47.551 138.76 47.4303 137.871 47.6476 137.033ZM189.467 157.143C187.34 154.966 184.799 153.237 181.994 152.056C179.189 150.875 176.177 150.267 173.133 150.267C170.09 150.267 167.077 150.875 164.273 152.056C161.468 153.237 158.927 154.966 156.8 157.143V42.4667C156.8 38.1348 158.521 33.9804 161.584 30.9173C164.647 27.8542 168.801 26.1333 173.133 26.1333C177.465 26.1333 181.62 27.8542 184.683 30.9173C187.746 33.9804 189.467 38.1348 189.467 42.4667V157.143Z" fill="#ED1C24"/>
<path d="M81.6667 52.2668C83.6049 52.2668 85.4997 51.692 87.1113 50.6152C88.7229 49.5383 89.979 48.0078 90.7207 46.2171C91.4624 44.4263 91.6565 42.4559 91.2784 40.5549C90.9002 38.6539 89.9669 36.9077 88.5963 35.5371C87.2258 34.1666 85.4796 33.2332 83.5786 32.8551C81.6775 32.4769 79.7071 32.671 77.9164 33.4127C76.1257 34.1545 74.5951 35.4106 73.5183 37.0222C72.4414 38.6338 71.8667 40.5285 71.8667 42.4668C71.8667 45.0659 72.8992 47.5585 74.737 49.3964C76.5749 51.2343 79.0675 52.2668 81.6667 52.2668ZM81.6667 39.2001C82.3128 39.2001 82.9443 39.3917 83.4815 39.7506C84.0187 40.1096 84.4374 40.6197 84.6847 41.2167C84.9319 41.8136 84.9966 42.4704 84.8706 43.104C84.7445 43.7377 84.4334 44.3198 83.9766 44.7766C83.5197 45.2335 82.9376 45.5446 82.304 45.6707C81.6703 45.7967 81.0135 45.732 80.4166 45.4848C79.8197 45.2375 79.3095 44.8188 78.9505 44.2816C78.5916 43.7444 78.4 43.1128 78.4 42.4668C78.4 41.6004 78.7442 40.7695 79.3568 40.1569C79.9694 39.5443 80.8003 39.2001 81.6667 39.2001Z" fill="#ED1C24"/>
</svg>
