<svg width="200" height="200" viewBox="0 0 200 200" fill="none" xmlns="http://www.w3.org/2000/svg">
<path d="M193.945 161.785H70.4508C69.0367 144.66 55.3418 130.965 38.2164 129.55V6.05566C38.2164 2.71699 35.5004 0.000976562 32.1617 0.000976562H6.05469C2.71602 0.000976562 0 2.71699 0 6.05566V35.8979C0 37.5162 1.31172 38.8275 2.92969 38.8275C4.54766 38.8275 5.85938 37.5162 5.85938 35.8979V6.05566C5.85938 5.94824 5.94688 5.86035 6.05469 5.86035H32.1617C32.2695 5.86035 32.357 5.94824 32.357 6.05566V12.9439H22.3438C20.7258 12.9439 19.4141 14.2553 19.4141 15.8736C19.4141 17.492 20.7258 18.8033 22.3438 18.8033H32.3566V25.8861H28.916C27.298 25.8861 25.9863 27.1975 25.9863 28.8158C25.9863 30.4342 27.298 31.7455 28.916 31.7455H32.3566V38.8283H22.3438C20.7258 38.8283 19.4141 40.1396 19.4141 41.758C19.4141 43.3764 20.7258 44.6877 22.3438 44.6877H32.3566V51.7705H28.916C27.298 51.7705 25.9863 53.0818 25.9863 54.7002C25.9863 56.3186 27.298 57.6299 28.916 57.6299H32.3566V64.7123H22.3438C20.7258 64.7123 19.4141 66.0236 19.4141 67.642C19.4141 69.2604 20.7258 70.5717 22.3438 70.5717H32.3566V77.6545H28.916C27.298 77.6545 25.9863 78.9658 25.9863 80.5842C25.9863 82.2025 27.298 83.5139 28.916 83.5139H32.3566V90.599H22.3438C20.7258 90.599 19.4141 91.9104 19.4141 93.5287C19.4141 95.1471 20.7258 96.4584 22.3438 96.4584H32.3566V103.541H28.916C27.298 103.541 25.9863 104.852 25.9863 106.47C25.9863 108.089 27.298 109.4 28.916 109.4H32.3566V116.485H22.3438C20.7258 116.485 19.4141 117.796 19.4141 119.415C19.4141 121.033 20.7258 122.344 22.3438 122.344H32.3566V129.428H5.85938V47.6162C5.85938 45.9979 4.54766 44.6865 2.92969 44.6865C1.31172 44.6865 0 45.9979 0 47.6162V190.6C0 195.783 4.21758 200.001 9.40117 200.001H67.6434H193.945C197.284 200.001 200 197.285 200 193.946V167.839C200 164.501 197.284 161.785 193.945 161.785ZM5.85938 190.6V135.287H35.2867C51.5129 135.287 64.7137 148.488 64.7137 164.714V164.714V194.141H9.40117C7.44844 194.141 5.85938 192.553 5.85938 190.6ZM194.141 193.946C194.141 194.053 194.053 194.141 193.945 194.141H70.5731V167.644H77.6566V177.657C77.6566 179.275 78.9684 180.587 80.5863 180.587C82.2043 180.587 83.516 179.275 83.516 177.657V167.644H90.5988V171.085C90.5988 172.703 91.9105 174.014 93.5285 174.014C95.1465 174.014 96.4582 172.703 96.4582 171.085V167.644H103.541V177.657C103.541 179.275 104.852 180.587 106.47 180.587C108.088 180.587 109.4 179.275 109.4 177.657V167.644H116.483V171.085C116.483 172.703 117.795 174.014 119.413 174.014C121.03 174.014 122.342 172.703 122.342 171.085V167.644H129.425V177.657C129.425 179.275 130.736 180.587 132.354 180.587C133.972 180.587 135.284 179.275 135.284 177.657V167.644H142.367V171.085C142.367 172.703 143.679 174.014 145.296 174.014C146.914 174.014 148.226 172.703 148.226 171.085V167.644H155.311V177.657C155.311 179.275 156.623 180.587 158.241 180.587C159.859 180.587 161.171 179.275 161.171 177.657V167.644H168.253V171.085C168.253 172.703 169.564 174.014 171.182 174.014C172.8 174.014 174.112 172.703 174.112 171.085V167.644H181.197V177.657C181.197 179.275 182.509 180.587 184.127 180.587C185.745 180.587 187.056 179.275 187.056 177.657V167.644H193.945C194.053 167.644 194.141 167.732 194.141 167.839V193.946Z" fill="#ED1C24"/>
<path d="M35.2867 155.312C30.1027 155.312 25.8859 159.53 25.8859 164.713C25.8859 169.897 30.1031 174.114 35.2867 174.114C40.4703 174.114 44.6875 169.897 44.6875 164.713C44.6875 159.53 40.4703 155.312 35.2867 155.312ZM35.2867 168.255C33.334 168.255 31.7453 166.666 31.7453 164.713C31.7453 162.761 33.334 161.172 35.2867 161.172C37.2395 161.172 38.8281 162.761 38.8281 164.713C38.8281 166.666 37.2395 168.255 35.2867 168.255Z" fill="#ED1C24"/>
<path d="M35.2867 142.37C22.9664 142.37 12.943 152.393 12.943 164.713C12.943 177.034 22.9664 187.057 35.2867 187.057C47.607 187.057 57.6305 177.034 57.6305 164.713C57.6301 152.393 47.607 142.37 35.2867 142.37ZM35.2867 181.198C26.1973 181.198 18.8024 173.803 18.8024 164.713C18.8024 155.624 26.1973 148.229 35.2867 148.229C44.3762 148.229 51.7711 155.624 51.7711 164.713C51.7707 173.803 44.3762 181.198 35.2867 181.198Z" fill="#ED1C24"/>
<path d="M83.9313 56.0957C84.6234 56.0957 85.3184 55.8519 85.8766 55.3555L94.2543 47.909C95.4637 46.834 95.5727 44.9824 94.4977 43.773C93.4227 42.5637 91.5707 42.4539 90.3617 43.5297L81.9836 50.9765C80.7742 52.0515 80.6656 53.9031 81.7406 55.1125C82.3191 55.7637 83.123 56.0957 83.9313 56.0957Z" fill="#ED1C24"/>
<path d="M102.165 39.8879C102.857 39.8879 103.552 39.6442 104.11 39.1481L112.488 31.7012C113.697 30.6262 113.806 28.7746 112.731 27.5653C111.656 26.3559 109.804 26.2461 108.595 27.3219L100.217 34.7684C99.0078 35.8434 98.8992 37.695 99.9738 38.9043C100.553 39.5559 101.357 39.8879 102.165 39.8879Z" fill="#ED1C24"/>
<path d="M67.6434 70.573H74.5195C76.1375 70.573 77.4492 69.2617 77.4492 67.6433C77.4492 66.2465 76.4715 65.0777 75.1629 64.7847C75.9461 63.6961 75.9004 62.173 74.9723 61.1293C73.8973 59.9199 72.0457 59.8097 70.8363 60.8859L65.6973 65.4539C64.7883 66.2617 64.473 67.5476 64.9055 68.6847C65.3371 69.8215 66.427 70.573 67.6434 70.573Z" fill="#ED1C24"/>
<path d="M105.875 67.6433C105.875 66.025 104.563 64.7136 102.945 64.7136H90.1301C88.5121 64.7136 87.2004 66.025 87.2004 67.6433C87.2004 69.2617 88.5121 70.573 90.1301 70.573H102.945C104.563 70.573 105.875 69.2617 105.875 67.6433Z" fill="#ED1C24"/>
<path d="M117.392 141.758H122.956V148.841H119.414C117.796 148.841 116.484 150.152 116.484 151.771C116.484 153.389 117.796 154.7 119.414 154.7H132.357C133.975 154.7 135.286 153.389 135.286 151.771C135.286 150.152 133.975 148.841 132.357 148.841H128.815V141.758H142.675C144.293 141.758 145.605 140.446 145.605 138.828C145.605 137.21 144.293 135.898 142.675 135.898H128.815V70.573H168.255V135.898H154.395C152.777 135.898 151.465 137.21 151.465 138.828C151.465 140.446 152.777 141.758 154.395 141.758H171.185C172.803 141.758 174.114 140.446 174.114 138.828V70.573H184.127C185.344 70.573 186.434 69.8215 186.866 68.6844C187.298 67.5477 186.983 66.2617 186.074 65.4535L128.815 14.5566V5.85937H132.357C133.975 5.85937 135.286 4.54805 135.286 2.92969C135.286 1.31133 133.975 0 132.357 0H119.414C117.796 0 116.484 1.31133 116.484 2.92969C116.484 4.54805 117.796 5.85937 119.414 5.85937H122.956V14.5562L118.8 18.2504C117.591 19.3254 117.482 21.177 118.557 22.3863C119.136 23.0379 119.94 23.3695 120.748 23.3695C121.44 23.3695 122.135 23.1254 122.693 22.6293L122.956 22.3953V64.7129H119.01C117.392 64.7129 116.08 66.0242 116.08 67.6426C116.08 69.2609 117.392 70.5723 119.01 70.5723H122.956V135.898H117.392C115.774 135.898 114.462 137.21 114.462 138.828C114.462 140.446 115.774 141.758 117.392 141.758ZM176.422 64.7137H128.815V22.3965L176.422 64.7137Z" fill="#ED1C24"/>
<path d="M99.2223 141.758H107.544C109.162 141.758 110.474 140.446 110.474 138.828C110.474 137.21 109.162 135.898 107.544 135.898H99.2223C97.6043 135.898 96.2926 137.21 96.2926 138.828C96.2926 140.446 97.6039 141.758 99.2223 141.758Z" fill="#ED1C24"/>
<path d="M80.5859 141.758H89.0797C90.6977 141.758 92.0094 140.447 92.0094 138.828C92.0094 137.21 90.6977 135.899 89.0797 135.899H83.5156V130.334C83.5156 128.716 82.2039 127.405 80.5859 127.405C78.968 127.405 77.6563 128.716 77.6563 130.334V138.828C77.6563 140.447 78.968 141.758 80.5859 141.758Z" fill="#ED1C24"/>
<path d="M80.5859 117.789C82.2039 117.789 83.5156 116.478 83.5156 114.859V101.782C83.5156 100.163 82.2039 98.8519 80.5859 98.8519C78.968 98.8519 77.6563 100.163 77.6563 101.782V114.859C77.6563 116.478 78.968 117.789 80.5859 117.789Z" fill="#ED1C24"/>
<path d="M80.5859 88.7738C82.2039 88.7738 83.5156 87.4625 83.5156 85.8441V77.3503C83.5156 75.732 82.2039 74.4207 80.5859 74.4207C78.968 74.4207 77.6563 75.732 77.6563 77.3503V85.8441C77.6563 87.4621 78.968 88.7738 80.5859 88.7738Z" fill="#ED1C24"/>
</svg>
