<svg width="202" height="202" viewBox="0 0 202 202" fill="none" xmlns="http://www.w3.org/2000/svg">
<path d="M199.875 124.794C198.591 124.283 197.126 124.602 196.172 125.601L181.793 140.714V50.945H181.81L195.529 36.1322C196.791 34.7683 196.708 32.637 195.343 31.3749C195.343 31.3749 195.341 31.3733 195.34 31.3718L190.402 26.7763L197.263 19.3699C198.523 18.0045 198.439 15.8747 197.073 14.6141L182.26 0.895398C180.897 -0.366746 178.767 -0.285069 177.505 1.08033L153.569 26.9258H37.0321C37.0214 17.6331 29.4916 10.1033 20.1989 10.0926H16.8332C7.5405 10.1033 0.0107876 17.6331 0 26.9258V171.687C0 173.546 1.50718 175.053 3.36726 175.053H54.3292L47.2587 183.543C46.0706 184.973 46.2647 187.095 47.6933 188.283L63.2166 201.208C64.6452 202.398 66.7688 202.204 67.9585 200.775L67.9601 200.773L85.1909 180.072C86.3806 178.639 87.1465 176.899 87.3992 175.053H149.087L128.854 196.3C127.574 197.647 127.628 199.778 128.974 201.059C129.6 201.653 130.431 201.986 131.295 201.985H198.625C200.485 201.985 201.992 200.478 201.992 198.619V127.922C201.992 126.544 201.154 125.305 199.875 124.794ZM188.301 33.9947L181.793 41.0344V36.0829L185.833 31.7062L188.301 33.9947ZM175.06 33.3952V33.443L146.589 64.2137L136.701 55.0659L171 17.9998L180.887 27.1477L175.101 33.3952H175.06ZM140.123 67.3976L132.379 69.6568L134.032 61.7588L140.123 67.3976ZM180.148 8.1169L190.031 17.2601L185.457 22.2116L175.572 13.0591L180.148 8.1169ZM16.8332 16.8255H20.1989C25.7776 16.8255 30.2992 21.3471 30.2992 26.9258V154.942C27.4019 152.713 23.8528 151.499 20.1989 151.487H16.8332C13.1778 151.499 9.63021 152.713 6.73298 154.942V26.9258C6.73298 21.3471 11.2545 16.8255 16.8332 16.8255ZM16.8332 158.22H20.1989C25.7776 158.22 30.2992 162.743 30.2992 168.32H6.73298C6.73298 162.743 11.2545 158.22 16.8332 158.22ZM80.019 175.766L77.8646 178.352L67.5162 169.738L69.6676 167.149C70.8573 165.72 72.9794 165.526 74.4079 166.716C74.4095 166.716 74.4095 166.717 74.411 166.717L79.5844 171.014C81.0145 172.202 81.2103 174.324 80.0221 175.754C80.0205 175.756 80.0205 175.756 80.019 175.757V175.766ZM64.9411 193.879L54.5912 185.264L63.2074 174.911L73.5557 183.527L64.9411 193.879ZM85.9845 168.32C85.4251 167.387 84.7178 166.554 83.8902 165.849L78.7168 161.544C74.4295 157.975 68.0618 158.556 64.4926 162.843L59.9249 168.32H37.0321V33.6587H147.34L129.474 52.9654C129.218 53.2536 129.015 53.5864 128.874 53.9455C128.834 54.0426 128.803 54.1335 128.77 54.2352C128.737 54.3354 128.686 54.4371 128.662 54.545L124.643 73.7607C124.263 75.5807 125.432 77.3638 127.252 77.7429C127.792 77.8554 128.352 77.8338 128.88 77.6797L147.734 72.1857C147.822 72.158 147.896 72.1071 147.979 72.0779C148.064 72.047 148.152 72.0039 148.243 71.9592C148.62 71.7881 148.962 71.5462 149.252 71.2488L175.06 43.3568V147.783L155.501 168.32H85.9845ZM195.259 195.252H139.149L195.259 136.338V195.252Z" fill="#ED1C24"/>
<path d="M158.483 186.441C159.004 187.699 160.232 188.519 161.594 188.519H185.159C187.019 188.519 188.526 187.012 188.526 185.153V161.587C188.526 159.727 187.018 158.221 185.159 158.221C184.267 158.221 183.41 158.576 182.78 159.207L159.214 182.772C158.25 183.735 157.962 185.184 158.483 186.441ZM181.793 169.713V181.786H169.721L181.793 169.713Z" fill="#ED1C24"/>
<path d="M148.127 127.922H124.562V90.8898C124.558 89.996 124.202 89.1391 123.571 88.5058L103.373 68.3068C102.058 66.9923 99.9267 66.9923 98.6121 68.3068L78.4132 88.5058C77.786 89.1407 77.4331 89.9975 77.43 90.8898V127.922H53.8653C52.0053 127.922 50.4981 129.429 50.4981 131.288C50.4981 133.148 52.0053 134.655 53.8653 134.655H148.129C149.987 134.655 151.494 133.148 151.494 131.288C151.494 129.429 149.987 127.922 148.127 127.922ZM100.996 75.4497L113.069 87.5225H88.9234L100.996 75.4497ZM84.163 94.2555H117.829V127.922H84.163V94.2555Z" fill="#ED1C24"/>
<path d="M97.6289 53.8577H104.363V60.5906H97.6289V53.8577Z" fill="#ED1C24"/>
<path d="M97.6289 141.388H104.363V148.121H97.6289V141.388Z" fill="#ED1C24"/>
</svg>
