<svg width="199" height="198" viewBox="0 0 199 198" fill="none" xmlns="http://www.w3.org/2000/svg">
<path d="M186.749 146.903L197.77 119.349L191.84 116.976L179.87 146.903H178.839V108.581H172.452V57.4839H159.677V44.7097H153.29V57.4839H146.903V38.3226H140.516V57.4839H134.129V44.7097H127.742V57.4839H114.968V95.8064H102.194V112.186C94.6664 102.944 84.3927 96.212 72.7331 93.1271L71.2832 88.7806C75.9394 87.4936 79.7653 84.2011 81.6782 79.8387H83.0323C90.0772 79.8387 95.8064 74.1095 95.8064 67.0645V51.0968C99.3289 51.0968 102.194 48.2322 102.194 44.7097V38.3226C102.194 34.8001 99.3289 31.9355 95.8064 31.9355H95.2508C92.1945 13.5406 76.4631 0 57.4839 0C38.5046 0 22.7732 13.5406 19.717 31.9355H19.1613C15.6388 31.9355 12.7742 34.8001 12.7742 38.3226V44.7097C12.7742 48.2322 15.6388 51.0968 19.1613 51.0968V67.0645C19.1613 74.1095 24.8905 79.8387 31.9355 79.8387H33.2895C35.2057 84.2011 39.0284 87.4968 43.6845 88.7806L42.2347 93.1271C17.2771 99.709 0 122.019 0 147.995V150.097C0 163.714 7.80503 175.521 19.1613 181.349V198H114.968V172.452H124.871C126.356 179.73 132.804 185.226 140.516 185.226C148.229 185.226 154.676 179.73 156.161 172.452H172.19C185.012 172.452 195.851 163.27 197.958 150.624L198.578 146.903H186.749ZM146.903 146.903V114.968H172.452V146.903H146.903ZM121.355 63.871H166.065V108.581H146.903V95.8064H121.355V63.871ZM140.516 102.194V146.903H108.581V102.194H140.516ZM102.194 123.514V146.903H101.162L89.1894 116.973L83.259 119.346L94.2831 146.903H82.4574L83.077 150.624C83.9233 155.701 86.1939 160.208 89.4194 163.797V191.613H73.4516V185.226C78.7337 185.226 83.0323 180.927 83.0323 175.645C83.0323 170.363 78.7337 166.065 73.4516 166.065V100.044C85.6286 103.915 95.9278 112.269 102.194 123.514ZM64.762 89.4194L66.7324 95.3338L57.4839 109.21L48.2322 95.3338L50.2058 89.4194H64.762ZM67.0645 121.831L61.4375 114.795L67.0645 106.355V121.831ZM47.9032 121.831V106.355L53.5303 114.795L47.9032 121.831ZM47.9032 132.053L57.4839 120.077L67.0645 132.053V160.239C66.0617 159.885 64.9919 159.677 63.871 159.677H60.1313C57.5733 159.677 55.1654 160.674 53.3546 162.485L50.078 165.761L47.9032 165.276V132.053ZM54.2903 170.58L57.8703 167C58.4739 166.397 59.2786 166.065 60.1313 166.065H63.871C65.6306 166.065 67.0645 167.498 67.0645 169.258V172.452H73.4516C75.2113 172.452 76.6452 173.886 76.6452 175.645C76.6452 177.405 75.2113 178.839 73.4516 178.839H54.2903V170.58ZM67.0645 185.226V191.613H47.9032V185.226H67.0645ZM83.0323 73.4516V60.6774C86.5547 60.6774 89.4194 63.542 89.4194 67.0645C89.4194 70.587 86.5547 73.4516 83.0323 73.4516ZM89.4194 56.0659C87.532 54.9674 85.3699 54.2903 83.0323 54.2903V51.0968H89.4194V56.0659ZM88.7679 31.9355H67.0645V7.84974C78.0344 11.2509 86.4494 20.3493 88.7679 31.9355ZM60.6774 6.54677V31.9355H54.2903V6.54677C55.341 6.44458 56.4045 6.3871 57.4839 6.3871C58.5633 6.3871 59.6267 6.44458 60.6774 6.54677ZM47.9032 7.84974V31.9355H26.1999C28.5184 20.3493 36.9334 11.2509 47.9032 7.84974ZM19.1581 38.3226H19.1613H95.8064V44.7097H19.1613L19.1581 38.3226ZM31.9355 51.0968V54.2903C29.5978 54.2903 27.4358 54.9674 25.5484 56.0659V51.0968H31.9355ZM25.5484 67.0645C25.5484 63.542 28.413 60.6774 31.9355 60.6774V73.4516C28.413 73.4516 25.5484 70.587 25.5484 67.0645ZM38.3226 73.4516V51.0968H76.6452V73.4516C76.6452 78.7337 72.3466 83.0323 67.0645 83.0323H47.9032C42.6211 83.0323 38.3226 78.7337 38.3226 73.4516ZM6.3871 150.097V147.995C6.3871 125.768 20.6431 106.581 41.5161 99.9996V163.861L38.0511 163.091C30.69 161.453 25.5484 155.044 25.5484 147.5V134.129H19.1613V147.5C19.1613 158.058 26.3595 167.032 36.6651 169.322L47.9032 171.819V178.839H35.129C19.2826 178.839 6.3871 165.943 6.3871 150.097ZM25.5484 183.865C28.5982 184.731 31.8045 185.226 35.129 185.226H41.5161V191.613H25.5484V183.865ZM95.8064 191.613V168.983C99.5844 171.155 103.95 172.394 108.581 172.442V191.613H95.8064ZM140.516 178.839C135.234 178.839 130.935 174.54 130.935 169.258C130.935 167.498 132.369 166.065 134.129 166.065H146.903C148.663 166.065 150.097 167.498 150.097 169.258C150.097 174.54 145.798 178.839 140.516 178.839ZM172.187 166.065H155.893C154.571 162.357 151.058 159.677 146.9 159.677H134.126C129.968 159.677 126.455 162.357 125.133 166.065H108.839C100.459 166.065 93.2037 160.875 90.3646 153.29H190.655C187.822 160.875 180.57 166.065 172.187 166.065Z" fill="#ED1C24"/>
<path d="M153.29 70.2581H159.677V76.6452H153.29V70.2581Z" fill="#ED1C24"/>
<path d="M140.516 70.2581H146.903V76.6452H140.516V70.2581Z" fill="#ED1C24"/>
<path d="M127.742 70.2581H134.129V76.6452H127.742V70.2581Z" fill="#ED1C24"/>
<path d="M153.29 83.0322H159.677V89.4193H153.29V83.0322Z" fill="#ED1C24"/>
<path d="M127.742 83.0322H134.129V89.4193H127.742V83.0322Z" fill="#ED1C24"/>
<path d="M140.516 83.0322H146.903V89.4193H140.516V83.0322Z" fill="#ED1C24"/>
<path d="M153.29 95.8064H159.677V102.193H153.29V95.8064Z" fill="#ED1C24"/>
<path d="M114.968 108.581H121.355V140.516H114.968V108.581Z" fill="#ED1C24"/>
<path d="M127.742 108.581H134.129V140.516H127.742V108.581Z" fill="#ED1C24"/>
<path d="M153.29 121.355H166.065V127.742H153.29V121.355Z" fill="#ED1C24"/>
<path d="M153.29 134.129H166.065V140.516H153.29V134.129Z" fill="#ED1C24"/>
</svg>
