<svg width="40" height="32" viewBox="0 0 40 32" fill="none" xmlns="http://www.w3.org/2000/svg">
<path d="M39.5 3.87125C38.1079 4.59992 36.0112 4.93664 35.3161 5.03367C35.3104 5.00005 35.3046 4.96786 35.2988 4.93568C37.662 3.47304 38.3854 0.719249 38.3854 0.719249C36.9218 1.55648 35.632 2.02097 34.6604 2.27843C34.1141 2.42494 33.6682 2.5042 33.3475 2.54839C31.8748 1.03723 29.8184 0.0996094 27.5421 0.0996094C23.0635 0.0996094 19.4321 3.73243 19.4321 8.21545C19.4321 8.37684 19.4365 8.53728 19.447 8.69627C19.4686 9.08486 19.5181 9.46673 19.5944 9.83804C17.4266 9.80585 9.60173 9.14058 3.11757 1.60356C3.11757 1.60356 -0.493169 7.90755 5.57721 12.2138C5.57721 12.2138 3.11757 12.1369 1.8119 11.2142C1.8119 11.2142 1.42789 17.2886 8.41943 19.21C8.41943 19.21 5.96123 19.8258 4.73093 19.2873C4.73093 19.2873 5.96075 24.5153 12.1075 24.9006C12.1075 24.9006 7.69891 28.9393 0.5 28.3581C4.04065 30.6012 8.23846 31.8996 12.7392 31.8996C25.394 31.8996 35.6531 21.6342 35.6531 8.97102C35.6531 8.81299 35.6516 8.65496 35.6483 8.49693C35.6516 8.40326 35.6531 8.31007 35.6531 8.21545C35.6531 8.14964 35.6516 8.08383 35.6507 8.01803C37.9903 6.45788 39.5 3.87125 39.5 3.87125Z" fill="white"/>
</svg>
