<svg width="45" height="45" viewBox="0 0 45 45" fill="none" xmlns="http://www.w3.org/2000/svg">
<path d="M30 40L15 34.725V5L30 10.275V40ZM43.75 0C43.6 0 43.475 0 43.35 0L30 5.25L15 0L0.9 4.75C0.375 4.925 0 5.375 0 5.95V43.75C0 44.0815 0.131696 44.3995 0.366117 44.6339C0.600537 44.8683 0.918479 45 1.25 45C1.375 45 1.525 45 1.65 44.925L15 39.75L30 45L44.1 40.25C44.625 40 45 39.625 45 39.05V1.25C45 0.918479 44.8683 0.600537 44.6339 0.366117C44.3995 0.131696 44.0815 0 43.75 0Z" fill="#ED1C24"/>
</svg>
