<svg width="35" height="35" viewBox="0 0 35 35" fill="none" xmlns="http://www.w3.org/2000/svg">
<path d="M7.4125 15.2312C10.1125 20.5375 14.4625 24.8875 19.7687 27.5875L23.8937 23.4625C24.4187 22.9375 25.15 22.7875 25.8063 22.9938C27.9062 23.6875 30.1562 24.0625 32.5 24.0625C32.9973 24.0625 33.4742 24.26 33.8258 24.6117C34.1775 24.9633 34.375 25.4402 34.375 25.9375V32.5C34.375 32.9973 34.1775 33.4742 33.8258 33.8258C33.4742 34.1775 32.9973 34.375 32.5 34.375C24.0462 34.375 15.9387 31.0168 9.96097 25.039C3.98325 19.0613 0.625 10.9538 0.625 2.5C0.625 2.00272 0.822544 1.52581 1.17417 1.17417C1.52581 0.822544 2.00272 0.625 2.5 0.625H9.0625C9.55978 0.625 10.0367 0.822544 10.3883 1.17417C10.74 1.52581 10.9375 2.00272 10.9375 2.5C10.9375 4.84375 11.3125 7.09375 12.0062 9.19375C12.2125 9.85 12.0625 10.5813 11.5375 11.1063L7.4125 15.2312Z" fill="#ED1C24"/>
</svg>
